# xmcd
#
# Track frame offsets:
#	150
#	16100
#	34313
#	53750
#	73308
#	91610
#	112740
#	129690
#	143785
#	160760
#	197695
#	216768
#	233495
#	252075
#	273948
#	292873
#
# Disc length: 4392 seconds
#
# Revision: 2
# Processed by: cddbd v1.5.2PL0 Copyright (c) Steve Scherf et al.
# Submitted via: EasyCDDAExtractor 16.0.8.2
#
DISCID=d4112610
DTITLE=Συλλογικός δίσκος - Τραγούδια της ξενητειάς, LP 1989
DYEAR=1992
DGENRE=Παραδοσιακή
TTITLE0=Σαμίου Δόμνα - Όλους τους μήνες τους θέλω [Προποντίδα]\n
TTITLE1=Σαμίου Δόμνα - Σαν πας στα ξένα [Δωδεκάνησα]
TTITLE2=Γρυλλάκης Σταύρος - Μάννα πολλά μαλώνεις με [ριζίτικο, Κρήτη]
TTITLE3=Δημούδης Βαγγέλης - Διώχνεις με μάννα, διώχνεις με [ζωναράδ., Αν. Ρωμυ
TTITLE3=λία]
TTITLE4=Χορωδία Πολυφ. Συγκρ. Πωγωνίου  - Αλησμονώ και χαίρομαι [πολυφωνικό, Ή
TTITLE4=πειρος]
TTITLE5=Σιάτρας Σάββας - Γιάννη μου το μαντήλι σου [Ήπειρος]
TTITLE6=Σαμίου Δόμνα - Ο Γιωργαλάκης [Θεσσαλία]
TTITLE7=Αμαραντίδης Γιώργος - Ένα καράβι κρητικό (Η μάγισσα)[Πόντος]
TTITLE8=Σαμίου Δόμνα - Άσπρα μου περιστέρια [συρτός, Μακεδονία]
TTITLE9=Σαμίου Δόμνα - Κοράσιον ετραγούδαγε [παραλογή, Προποντίδα]
TTITLE10=Σιάτρας Σάββας - Ξενητεμένο μου πουλί [Ήπειρος]
TTITLE11=Σαμίου Δόμνα - Νά ’μαν πουλί να πέταγα [Θράκη]
TTITLE12=Σαμίου Δόμνα - Θάλασσα απ’ όλα τα νερά [δίστιχο, Κυκλάδες]
TTITLE13=Σίκκης Χρήστος - Τρεις καλογέροι Κρητικοί [Κύπρος]
TTITLE14=Φιλιππάκης Μανώλης - Συρματικό (Παρακαλώ σε μοίρα μου)[Δωδεκάνησα]
TTITLE15=Σαμίου Δόμνα - Μιά κόρη Τρικεριώτισσα (Επιστροφή ξενητεμένου)
EXTD=
EXTT0=
EXTT1=
EXTT2=
EXTT3=
EXTT4=
EXTT5=
EXTT6=
EXTT7=
EXTT8=
EXTT9=
EXTT10=
EXTT11=
EXTT12=
EXTT13=
EXTT14=
EXTT15=
PLAYORDER=
